<?xml version="1.0" encoding="iso-8859-1"?>
<!-- Uploaded to: SVG Repo, www.svgrepo.com, Generator: SVG Repo Mixer Tools -->
<svg version="1.1" id="Capa_1" xmlns="http://www.w3.org/2000/svg" xmlns:xlink="http://www.w3.org/1999/xlink" 
	 viewBox="0 0 457.35 457.35" xml:space="preserve">
<g id="XMLID_38_">
	<g>
		<path style="fill:#A7B6C4;" d="M232.009,364.53l-78.65,78.65c-3.34,3.34-7.79,5.19-12.53,5.19c-4.73,0-9.18-1.85-12.52-5.19
			L14.179,329.05c-6.91-6.91-6.91-18.15,0-25.06l78.64-78.65L232.009,364.53z"/>
		
			<rect x="354.914" y="-12.817" transform="matrix(0.7071 -0.7071 0.7071 0.7071 39.7293 284.3651)" style="fill:#F97946;" width="16.419" height="214.084"/>
		<polygon style="fill:#F97946;" points="256.089,352.64 244.469,364.26 93.089,212.88 104.709,201.27 		"/>
		
			<rect x="152.752" y="81.448" transform="matrix(0.7071 -0.7071 0.7071 0.7071 -54.5357 245.3193)" style="fill:#4489D3;" width="232.214" height="214.084"/>
		<path d="M457.349,164.11l-212.88,212.88l-6.09-6.1l-78.65,78.65c-5.21,5.21-12.05,7.81-18.9,7.81c-6.84,0-13.68-2.6-18.89-7.81
			L7.809,335.41c-10.41-10.42-10.41-27.37,0-37.78l78.65-78.65l-6.1-6.1L293.239,0L457.349,164.11z M433.009,175.72l11.61-11.61
			L293.239,12.73l-11.61,11.61L433.009,175.72z M262.449,346.28l164.2-164.2L275.269,30.7l-164.2,164.2L262.449,346.28z
			 M244.469,364.26l11.62-11.62l-151.38-151.37l-11.62,11.61L244.469,364.26z M153.359,443.18l78.65-78.65L92.819,225.34
			l-78.64,78.65c-6.91,6.91-6.91,18.15,0,25.06l114.13,114.13c3.34,3.34,7.79,5.19,12.52,5.19
			C145.569,448.37,150.019,446.52,153.359,443.18z"/>
	</g>
</g>
</svg>